<svg width="87" height="44" viewBox="0 0 87 44" fill="none" xmlns="http://www.w3.org/2000/svg">
<path d="M32.2734 15H34.4461V28.5943H32.2734V15Z" fill="white"/>
<path d="M42.0057 24.2887C42.0057 26.3949 40.3054 26.5863 39.7387 26.5863C38.4162 26.5863 38.2273 25.3418 38.2273 24.6717V19.4062H36.0547V24.5759C36.0547 25.8204 36.4325 26.9693 37.1882 27.6394C37.8494 28.3096 38.6996 28.5968 39.7387 28.5968C40.7777 28.5968 41.439 28.4053 42.0057 27.8309V28.5968H44.1783V19.4062H42.0057V24.2887Z" fill="white"/>
<path d="M48.4269 16.0547H46.2543V19.4054H44.6484V21.5115H46.2543V28.5959H48.4269V21.5115H50.0327V19.4054H48.4269V16.0547Z" fill="white"/>
<path d="M56.8374 25.8166C56.3651 26.1996 55.7039 26.4868 55.0426 26.4868C53.5313 26.4868 52.4921 25.338 52.4921 23.8062C52.4921 22.2745 53.5313 21.2214 55.0426 21.2214C56.554 21.2214 56.3651 21.4129 56.8374 21.8915L57.1208 22.1787L58.6321 20.7427L58.2543 20.4555C57.4042 19.6896 56.2706 19.2109 55.0426 19.2109C52.3977 19.2109 50.4141 21.2214 50.4141 23.9019C50.4141 26.5825 52.3977 28.5929 55.0426 28.5929C57.6875 28.5929 57.4042 28.1142 58.2543 27.3483L58.6321 27.0611L57.1208 25.5294L56.8374 25.8166Z" fill="white"/>
<path d="M66.2842 20.1697C65.6226 19.4995 64.9615 19.2123 63.9224 19.2123C62.8835 19.2123 62.4112 19.4038 61.8445 19.9782V15H59.6719V28.5943H61.8445V23.5204C61.8445 21.4142 63.2613 21.2227 63.828 21.2227C65.1508 21.2227 65.0559 22.4673 65.0559 23.1374V28.4985H67.229V23.2332C67.229 21.9886 66.9454 20.8398 66.2842 20.1697Z" fill="white"/>
<path d="M54.9489 25.4346C55.7836 25.4346 56.4603 24.7488 56.4603 23.9028C56.4603 23.0569 55.7836 22.3711 54.9489 22.3711C54.1142 22.3711 53.4375 23.0569 53.4375 23.9028C53.4375 24.7488 54.1142 25.4346 54.9489 25.4346Z" fill="white"/>
<path d="M29.2572 25.2438C28.5015 26.0097 27.368 26.4884 26.14 26.4884C23.7785 26.4884 22.0782 24.5737 22.0782 21.9888C22.0782 19.404 23.7785 17.4893 26.2344 17.4893C28.6904 17.4893 28.5015 17.968 29.3516 18.8296L29.635 19.1168L31.052 17.6808L30.7686 17.3936C29.5406 16.1491 27.9347 15.4789 26.2344 15.4789C22.6449 15.3831 20 18.2552 20 21.9888C20 25.7225 22.6449 28.5945 26.14 28.5945C29.635 28.5945 29.5406 27.9244 30.6742 26.6798L30.9575 26.3926L29.5406 24.9566L29.2572 25.2438Z" fill="white"/>
</svg>
