<svg width="126" height="44" viewBox="0 0 126 44" fill="none" xmlns="http://www.w3.org/2000/svg">
<path fill-rule="evenodd" clip-rule="evenodd" d="M86.8269 18.7977C87.7995 18.7977 88.714 19.3027 89.1417 19.8482V15H91.4764V28.8376H89.1417V27.8275C88.8694 28.3325 88.0136 28.9991 86.8269 28.9991C83.9667 28.9991 82.5078 26.9589 82.5078 23.9288C82.5078 20.8785 83.9667 18.7977 86.8269 18.7977ZM87.1573 26.8983C88.3636 26.8983 89.3367 25.8478 89.3367 23.9086C89.3367 21.9491 88.3636 20.9188 87.1573 20.9188C85.9511 20.9188 84.9785 21.9693 84.9785 23.9086C84.9589 25.868 85.932 26.8983 87.1573 26.8983Z" fill="white"/>
<path fill-rule="evenodd" clip-rule="evenodd" d="M20.3308 21.5442C20.642 19.9282 22.0038 18.7969 23.9492 18.7969C26.206 18.7969 27.9375 19.7665 27.9375 22.9381V28.7962H26.0309L25.7975 27.5438C25.136 28.3923 24.2411 28.9578 22.8792 28.9578C21.2646 28.9578 20 27.9074 20 25.9682C20 24.0288 21.6731 22.7563 24.0465 22.7563H25.6224V22.3118C25.6224 21.2007 24.8247 20.8574 23.9492 20.8574C23.2878 20.8574 22.6069 21.0795 22.3151 21.9886L20.3308 21.5442ZM23.4046 26.8974C24.4746 26.8974 25.5835 26.1499 25.5835 24.8773V24.6956H24.0271C23.0155 24.6551 22.4123 25.0793 22.4123 25.9277C22.4318 26.3924 22.7626 26.8974 23.4046 26.8974Z" fill="white"/>
<path fill-rule="evenodd" clip-rule="evenodd" d="M65.8465 21.5442C66.1574 19.9282 67.5195 18.7969 69.4648 18.7969C71.7213 18.7969 73.453 19.7665 73.453 22.9381V28.7962H71.5464L71.3127 27.5438C70.6515 28.3923 69.7565 28.9578 68.3949 28.9578C66.78 28.9578 65.5156 27.9074 65.5156 25.9682C65.5156 24.0288 67.1886 22.7563 69.562 22.7563H71.1378V22.3118C71.1378 21.2007 70.3401 20.8574 69.4648 20.8574C68.8035 20.8574 68.1226 21.0795 67.8308 21.9886L65.8465 21.5442ZM68.9203 26.8974C69.9902 26.8974 71.0991 26.1499 71.0991 24.8773V24.6956H69.5425C68.5312 24.6956 67.9281 25.0793 67.9281 25.9479C67.9472 26.3924 68.2781 26.8974 68.9203 26.8974Z" fill="white"/>
<path d="M75.5703 18.9383V28.8165L77.9051 28.7761V25.2814C77.9051 22.1098 79.0918 20.9382 80.4534 20.9382C80.8425 20.9382 81.1538 21.0392 81.4261 21.221L81.8542 18.9787C81.4652 18.8574 81.1343 18.7969 80.7066 18.7969C79.6363 18.7969 78.5664 19.3827 77.9051 20.5544V18.9383H75.5703Z" fill="white"/>
<path d="M98.5183 21.7069L99.919 20.3736C99.3359 19.4242 98.2069 18.7575 96.9621 18.7778C95.1141 18.7778 93.9274 20.1312 93.9274 21.6463C93.9274 23.1613 94.8028 23.8481 95.834 24.2926C96.1106 24.4123 96.3895 24.5139 96.6545 24.6101C97.5051 24.92 98.2069 25.1757 98.2069 25.8076C98.2069 26.5348 97.7406 26.8782 97.0202 26.8782C96.0872 26.8782 95.445 26.1914 95.1141 25.2421L93.2656 26.2924C93.7329 27.4843 95.075 28.9387 97.0398 28.9387C99.1023 28.9387 100.406 27.4641 100.406 25.6661C100.406 23.8327 98.8215 23.2823 97.5495 22.8405L97.5423 22.8378C97.3454 22.7695 97.1566 22.7037 96.9816 22.636C96.3985 22.434 96.0672 22.131 96.0672 21.6867C96.0672 21.1412 96.4953 20.8584 96.943 20.8584C97.4484 20.8584 98.0906 21.1009 98.5183 21.7069Z" fill="white"/>
<path d="M51.2681 18.959L49.5951 25.7262L47.9803 18.959H45.8014L44.2061 25.7262L42.8832 21.7871L42.7275 22.2719L41.9688 24.797L43.175 28.817H45.2566L46.8908 22.4537L48.525 28.817H50.5872L53.6221 18.959H51.2681Z" fill="white"/>
<path d="M60.8529 25.7262L62.5453 18.959H64.8993L61.845 28.817H59.7829L58.1486 22.4537L56.5144 28.817H54.4522L53.2266 24.797L53.9853 22.2719L54.141 21.7871L55.4834 25.7262L57.0592 18.959H59.2381L60.8529 25.7262Z" fill="white"/>
<path d="M42.3532 18.959L39.3183 28.7968H37.2561L35.6219 22.4336L33.9877 28.8371H31.9255L28.8906 18.9994H31.2641L32.9566 25.7465L34.5714 18.9994H36.7308L38.3456 25.7465L40.0381 18.9994L42.3532 18.959Z" fill="white"/>
<path d="M105.019 27.2828C105.019 26.3333 104.357 25.6465 103.442 25.6465C102.548 25.6465 101.867 26.3333 101.867 27.2828C101.867 28.2321 102.528 28.919 103.442 28.919C104.357 28.919 105.019 28.2321 105.019 27.2828Z" fill="white"/>
</svg>
