<svg width="102" height="56" viewBox="0 0 102 56" fill="none" xmlns="http://www.w3.org/2000/svg">
<path d="M72.2667 20.6688C72.5015 20.6688 72.7195 20.7216 72.9041 20.8448C73.3233 21.0735 73.5916 21.5485 73.5916 22.0764V26.0354H77.2479C77.9859 26.0354 78.5726 26.6512 78.5726 27.4254C78.5726 28.1996 77.9859 28.8155 77.2479 28.8155H73.5916V32.5809C73.5916 33.355 73.0046 33.9709 72.2667 33.9709C72.1157 33.9709 62.0862 33.9709 62.0862 33.9709C61.3483 33.9709 60.7613 33.355 60.7613 32.5809V27.355C60.7949 26.616 61.3818 26.0178 62.0862 26.0178H70.9418V23.4489H60.7277L55.8807 32.8976C55.7969 33.3198 55.5453 33.6893 55.1595 33.8829C54.9751 33.9709 54.7738 34.0236 54.5893 34.0236C54.1365 34.0236 53.6836 33.7773 53.4488 33.3374C53.3985 33.267 53.365 33.179 53.3314 33.0911L49.5075 25.2084L45.6332 32.9151C45.4654 33.3198 45.2139 33.6893 44.8282 33.9005C44.6436 33.9885 44.4424 34.0413 44.2579 34.0413C43.8052 34.0413 43.3523 33.7949 43.1175 33.355C43.0671 33.2846 43.0335 33.1966 43 33.1086L38.3207 23.484H30.5051V26.0529H36.8281C37.566 26.0529 38.153 26.6688 38.153 27.443C38.153 28.2172 37.566 28.8331 36.8281 28.8331H30.5051V32.6689C30.5051 33.443 29.9181 34.0589 29.1801 34.0589C28.4422 34.0589 27.8552 33.443 27.8552 32.6689V28.8331H24.1318C23.3939 28.8331 22.8069 28.2172 22.8069 27.443C22.8069 26.6688 23.3939 26.0529 24.1318 26.0529H27.7881V22.094C27.7881 21.5662 28.0732 21.1087 28.4757 20.8624C28.6602 20.7568 28.8782 20.6864 29.113 20.6864H39.0251C39.2432 20.6864 39.4445 20.7392 39.6289 20.8448C39.914 20.9679 40.1488 21.1966 40.283 21.5134L44.2076 29.5896L48.1321 21.8829C48.3334 21.4606 48.4341 21.0735 48.8701 20.8624C49.0546 20.7744 49.2559 20.7216 49.4404 20.7216C49.7758 20.7216 50.0944 20.8448 50.3292 21.0911C50.564 21.2847 50.6815 21.4254 50.8493 21.7597L54.5558 29.5896L58.7151 21.4958C58.8157 21.3023 58.9667 21.1439 59.1512 21.0207C59.386 20.8271 59.6711 20.704 60.0065 20.704H72.2667M63.3609 31.1733H70.9418V28.8155H63.3609V31.1733ZM72.2667 17.8184H60.0065C59.1177 17.8184 58.2455 18.1351 57.5411 18.6981C57.0547 19.05 56.6522 19.5251 56.367 20.053L56.3503 20.0881L56.3335 20.1234L54.6396 23.4313C54.6396 23.4313 52.6773 19.3844 52.0904 18.8917C51.3524 18.223 50.4131 17.8535 49.4404 17.8535C48.8366 17.8535 48.2328 17.9943 47.6794 18.2759C46.6227 18.8037 46.0357 19.789 45.5494 20.9327L44.2746 23.4313L42.7149 20.2289C42.3123 19.3668 41.6248 18.6629 40.7861 18.2583C40.2327 17.9767 39.6289 17.836 39.0251 17.836H29.113C28.4422 17.836 27.7713 18.0119 27.1843 18.3462C25.8761 19.0852 25.071 20.528 25.071 22.0764V23.1849H24.1318C21.9012 23.1849 20.0898 25.0852 20.0898 27.4254C20.0898 29.7656 21.9012 31.6659 24.1318 31.6659H25.071V32.6513C25.071 34.9914 26.8824 36.8917 29.113 36.8917C31.3437 36.8917 33.1551 34.9914 33.1551 32.6513V31.6659H36.7441C37.5157 31.6659 38.2537 31.4371 38.8741 31.0325L40.4675 34.3052C40.5514 34.4988 40.6352 34.6746 40.7358 34.8506C41.4738 36.1175 42.7819 36.8917 44.1908 36.8917C44.7946 36.8917 45.3984 36.7509 45.9518 36.4694C46.9413 35.9768 47.7967 35.1322 48.2328 34.0589L49.3901 31.3667L50.8325 34.3228C50.9163 34.5164 51.0001 34.6922 51.1008 34.8682C51.8388 36.1351 53.1469 36.9093 54.5558 36.9093C55.1595 36.9093 55.7633 36.7685 56.3167 36.4869C57.2392 36.0119 57.9604 35.1849 58.3293 34.1997C58.9332 35.748 60.3923 36.8389 62.0862 36.8389H72.2667C74.4973 36.8389 76.3087 35.009 76.3087 32.6689V31.6835H77.2479C79.4788 31.6835 81.2898 29.7831 81.2898 27.443C81.2898 25.1028 79.4788 23.2026 77.2479 23.2026H76.3087V22.094C76.3087 20.528 75.5036 19.1028 74.1954 18.3638C73.6085 17.9943 72.9376 17.8184 72.2667 17.8184Z" fill="white"/>
</svg>
