<svg width="111" height="44" viewBox="0 0 111 44" fill="none" xmlns="http://www.w3.org/2000/svg">
<g clip-path="url(#clip0_687_1881)">
<path d="M32.0145 19.8178C31.8751 19.8335 31.737 19.7883 31.6283 19.6991L25.5024 14.6636C25.0965 14.3299 24.4949 14.3842 24.1572 14.7842C23.8195 15.1841 23.8741 15.7782 24.2794 16.1114L30.405 21.1469C30.9064 21.5602 31.5421 21.7525 32.1881 21.6954C32.8369 21.6374 33.4242 21.3328 33.8411 20.8394C34.2586 20.3451 34.4559 19.7202 34.3967 19.0801C34.338 18.4395 34.0292 17.8602 33.5287 17.4491L27.3956 12.4072C25.7384 11.044 23.264 11.2654 21.8824 12.9019C20.5004 14.538 20.7257 16.9783 22.3839 18.3415L31.7291 26.025C32.1601 26.3794 32.4255 26.8783 32.4763 27.4296C32.5271 27.9809 32.3574 28.5184 31.9978 28.9446C31.6391 29.3698 31.1335 29.6313 30.5742 29.6818C30.014 29.7288 29.4702 29.5631 29.0392 29.2097L22.5275 23.8556C22.1217 23.5233 21.5201 23.5767 21.1824 23.9762C20.8447 24.3766 20.8993 24.9711 21.3046 25.3043L27.8163 30.6584C28.5439 31.2557 29.4414 31.5751 30.377 31.5751C30.5002 31.5751 30.6237 31.5696 30.7478 31.5585C31.815 31.4627 32.78 30.963 33.4657 30.1512C34.1518 29.3385 34.4764 28.3113 34.3789 27.2584C34.2819 26.2054 33.7754 25.2528 32.9521 24.5762L23.6068 16.8937C22.7579 16.1956 22.6427 14.9461 23.3498 14.1085C23.6926 13.7026 24.1749 13.4528 24.7079 13.4049C25.2443 13.3593 25.7616 13.5172 26.1726 13.8549L32.3056 18.8974C32.4143 18.9867 32.481 19.1118 32.494 19.2508C32.5066 19.3898 32.4641 19.5251 32.3737 19.6319C32.2828 19.7396 32.1554 19.8059 32.0145 19.8178Z" fill="white"/>
<path d="M42.5052 22.4582C41.2266 22.1305 40.6951 21.9832 40.6951 21.3933C40.6951 20.918 41.0937 20.6232 41.8409 20.6232C42.6712 20.6232 43.1694 20.9836 43.1694 21.8357H45.3946C45.3946 19.9842 44.0661 19.0176 41.8576 19.0176C39.7653 19.0176 38.3704 20.0825 38.3704 21.5735C38.3704 23.5068 39.8814 23.8345 41.293 24.195C42.6048 24.5391 43.2358 24.6866 43.2358 25.4075C43.2358 25.899 42.8207 26.2102 42.0071 26.2102C41.1747 26.2102 40.6771 25.8554 40.5574 25.2196C40.5238 25.0412 40.3884 24.8996 40.2046 24.8996H38.5493C38.3443 24.8996 38.1693 25.0746 38.189 25.276C38.3611 27.0333 39.7668 27.8651 41.9573 27.8651C44.2489 27.8651 45.6769 26.8165 45.6769 25.2601C45.6769 23.2282 44.0162 22.8514 42.5052 22.4582Z" fill="white"/>
<path d="M54.126 21.7864C53.5946 20.0988 52.1665 19.0176 50.2236 19.0176C47.5834 19.0176 46.0391 20.918 46.0391 23.3757C46.0391 26.03 47.5834 27.865 50.2403 27.865C52.2318 27.865 53.6074 26.8693 54.1226 25.5787C54.2176 25.3405 54.0554 25.0797 53.7959 25.0797H52.1694C52.0104 25.0797 51.887 25.1892 51.8293 25.3353C51.617 25.8724 51.0476 26.2429 50.2403 26.2429C49.2439 26.2429 48.397 25.6367 48.3306 23.9164H54.3917C54.3917 22.9989 54.3086 22.3599 54.126 21.7864ZM48.3804 22.4746C48.5629 21.2131 49.277 20.6395 50.2235 20.6395C51.1535 20.6395 51.9174 21.2131 52.0668 22.4746H48.3804Z" fill="white"/>
<path d="M59.1485 20.787C60.0453 20.787 60.643 21.3933 60.726 22.3763H63.1505C62.9678 20.4266 61.4401 19.0176 59.1651 19.0176C56.5913 19.0176 54.9141 20.7543 54.9141 23.4413C54.9141 26.1283 56.5912 27.865 59.1651 27.865C61.2924 27.865 62.7663 26.6331 63.0981 24.7451C63.1351 24.5348 62.9573 24.3423 62.741 24.3423H61.0232C60.8439 24.3423 60.7037 24.4782 60.674 24.6528C60.5211 25.5508 59.956 26.0955 59.1485 26.0955C58.0193 26.0955 57.3385 25.0798 57.3385 23.4413C57.3385 21.8028 58.0194 20.787 59.1485 20.787Z" fill="white"/>
<path d="M66.9286 17.1172H64.6039V19.2798H63.2422V20.9838H64.6039V27.2519C64.6039 27.4458 64.7632 27.603 64.9597 27.603H66.5729C66.7693 27.603 66.9287 27.4458 66.9287 27.2519V20.9838H68.5395V19.2799H66.9287V17.1172H66.9286Z" fill="white"/>
<path d="M70.7824 15.7893H70.2672C69.6709 15.7893 69.1875 16.2662 69.1875 16.8546V16.9859C69.1875 17.5743 69.6709 18.0512 70.2672 18.0512H70.7824C71.3787 18.0512 71.8621 17.5743 71.8621 16.9859V16.8546C71.8621 16.2663 71.3787 15.7893 70.7824 15.7893Z" fill="white"/>
<path d="M69.3594 27.2514C69.3594 27.4453 69.5187 27.6025 69.7152 27.6025H71.3283C71.5247 27.6025 71.6841 27.4453 71.6841 27.2514V19.2793H69.3594V27.2514Z" fill="white"/>
<path d="M76.8097 19.0176C74.1694 19.0176 72.4922 20.7378 72.4922 23.4413C72.4922 26.1447 74.1693 27.865 76.8097 27.865C79.45 27.865 81.1272 26.1446 81.1272 23.4413C81.1272 20.7378 79.45 19.0176 76.8097 19.0176ZM76.8097 26.0955C75.6638 26.0955 74.9333 25.0632 74.9333 23.4413C74.9333 21.8193 75.6639 20.787 76.8097 20.787C77.9555 20.787 78.686 21.8193 78.686 23.4413C78.6861 25.0632 77.9555 26.0955 76.8097 26.0955Z" fill="white"/>
<path d="M86.6359 19.0469C85.5565 19.0469 84.7096 19.591 84.1616 20.3282H84.1284V19.2797H81.9531V27.2519C81.9531 27.4458 82.1124 27.603 82.309 27.603H83.9221C84.1187 27.603 84.278 27.4458 84.278 27.2519V23.1464C84.278 21.6391 84.9754 20.8854 85.9385 20.8854C86.8518 20.8854 87.4163 21.4588 87.4163 22.7205V27.2519C87.4163 27.4458 87.5756 27.603 87.7722 27.603H89.3853C89.5819 27.603 89.7412 27.4458 89.7412 27.2519V22.4912C89.7411 20.23 88.529 19.0469 86.6359 19.0469Z" fill="white"/>
</g>
<defs>
<clipPath id="clip0_687_1881">
<rect width="70" height="21" fill="white" transform="translate(20.3906 11)"/>
</clipPath>
</defs>
</svg>
