<svg width="63" height="44" viewBox="0 0 63 44" fill="none" xmlns="http://www.w3.org/2000/svg">
<path d="M31.7829 6.31227C31.6848 6.63674 31.4614 6.98657 31.1398 7.34076C30.8158 7.69869 30.3931 8.05953 29.9012 8.4027C29.407 8.74775 28.8449 9.07285 28.2469 9.356C27.6483 9.63955 27.0164 9.88011 26.3837 10.0557C25.7542 10.2308 25.1867 10.3242 24.7009 10.3444C24.2191 10.3642 23.8187 10.3111 23.5177 10.1944C23.2206 10.0791 23.0195 9.90109 22.9329 9.66822C22.8463 9.43888 22.8702 9.15615 23.0186 8.82752C23.0637 8.72802 23.1185 8.62768 23.1832 8.5261C23.2471 8.42534 23.3204 8.32314 23.4024 8.22115C23.4842 8.11894 23.5738 8.01694 23.6716 7.91431C23.7685 7.81273 23.8731 7.71074 23.985 7.60978L24.2851 7.34762L24.58 7.10914L24.8604 6.89953L25.1395 6.70426L25.4157 6.52499L25.6827 6.36295L25.9468 6.21318C25.9468 6.21318 25.4104 6.62262 25.1464 6.95624C25.098 7.01731 25.0526 7.07569 25.011 7.13241C24.9246 7.24977 24.8547 7.35904 24.8085 7.46665C24.7396 7.62744 24.7331 7.7635 24.7819 7.87298C24.7983 7.90912 24.8206 7.94236 24.8485 7.97249C24.88 8.00634 24.9187 8.03605 24.9642 8.06181C25.001 8.08258 25.0422 8.10065 25.0876 8.11602C25.2407 8.16775 25.4405 8.18769 25.6792 8.17315C25.9194 8.1582 26.1972 8.10876 26.5046 8.02067C26.8119 7.93281 27.119 7.81481 27.4095 7.6773C27.7007 7.53977 27.9742 7.38252 28.2172 7.21654C28.459 7.05077 28.6696 6.87606 28.833 6.70302C28.9958 6.53039 29.1129 6.35921 29.1695 6.19988C29.2256 6.04138 29.2167 5.90947 29.154 5.80643C29.0914 5.70402 28.9749 5.62965 28.8145 5.58644C28.655 5.54323 28.4578 5.5532 28.2241 5.59766C28.152 5.61127 28.0759 5.62255 27.9963 5.63436C27.8244 5.65985 27.6359 5.68781 27.434 5.74702C27.3367 5.77589 27.2605 5.80103 27.1851 5.82969C27.1364 5.8484 27.0879 5.86833 27.0342 5.89202L26.9983 5.90801L26.9517 5.929C27.5108 5.64066 27.843 5.50397 28.4433 5.31618C28.8317 5.19444 29.0979 5.12381 29.4551 5.06025C29.87 4.98629 30.2202 4.99148 30.5354 5.01746C30.8531 5.04405 31.1219 5.1101 31.3311 5.21521C31.5425 5.32116 31.6934 5.46595 31.7727 5.64835C31.8536 5.8324 31.8605 6.05467 31.7829 6.31227Z" fill="white"/>
<path d="M39.4603 20.2063C39.4603 20.2063 39.3242 20.5859 39.2007 20.8106C39.086 21.0182 38.8619 21.3142 38.8619 21.3142L38.7985 21.3989L38.7384 21.4789C38.6005 21.659 38.3726 21.9295 38.3726 21.9295L38.066 22.27C37.7509 22.6054 37.3897 22.9291 36.993 23.2333C36.5946 23.5386 36.1603 23.8238 35.7002 24.0817C35.2392 24.3394 34.7528 24.5686 34.2512 24.7617C33.7506 24.9547 33.2354 25.1112 32.7161 25.2233C32.6138 25.2453 32.5127 25.2657 32.4124 25.2836C32.3122 25.3017 32.2128 25.3183 32.1156 25.3324C32.0179 25.3471 31.9215 25.3594 31.8258 25.3702C31.7844 25.3748 31.7434 25.379 31.7026 25.3829C31.6494 25.3879 31.5968 25.3922 31.5442 25.3962L30.9771 25.4209L30.8524 25.4221L30.2459 25.4044L29.6293 25.3476C29.6293 25.3476 29.524 25.3339 29.4567 25.3243C29.2005 25.2873 29.0562 25.2622 28.8029 25.2086C28.6848 25.1837 28.5374 25.1473 28.4123 25.1153C28.264 25.0775 28.147 25.0458 28.147 25.0458L27.8166 24.9321L27.7266 24.8871C27.9596 24.9807 28.2637 25.0686 28.5652 25.1159C28.8693 25.1631 29.1932 25.1899 29.5363 25.1947C29.8809 25.1994 30.2451 25.1822 30.6244 25.1415C31.0059 25.1001 31.4039 25.0354 31.8154 24.9456C32.7589 24.7393 33.6935 24.4204 34.5815 24.0153C35.4702 23.6101 36.3058 23.1223 37.0531 22.5797C37.7966 22.04 38.4478 21.4502 38.9761 20.8381C39.1584 20.6266 39.3085 20.4342 39.4616 20.1976C39.4687 20.1893 39.4603 20.2063 39.4603 20.2063Z" fill="white"/>
<path d="M34.032 5.45181L34.6998 5.70462L35.3587 6.00853L35.5907 6.12986C35.6361 6.15395 35.6802 6.17908 35.7228 6.20505C35.8527 6.28461 35.969 6.37352 36.0709 6.47137C36.207 6.60245 36.3174 6.7489 36.3988 6.91177C36.4439 7.00151 36.4801 7.09603 36.5073 7.19512C36.5161 7.2267 36.5239 7.25868 36.5306 7.2913C36.5416 7.34344 36.55 7.39683 36.5561 7.45125C36.578 7.64881 36.5673 7.86215 36.5217 8.09108C36.4018 8.69476 36.0504 9.34746 35.5122 10.0095C34.9655 10.6826 34.2291 11.3615 33.356 12.0042C32.475 12.6525 31.4612 13.2587 30.3741 13.7799C29.2864 14.3009 28.1353 14.7311 26.983 15.0294C25.9526 15.2959 25.0178 15.4322 24.2046 15.4509C23.4037 15.4694 22.7253 15.3743 22.1922 15.1798C21.668 14.9883 21.2864 14.702 21.0633 14.3343C20.845 13.9739 20.7802 13.536 20.885 13.0329L20.932 12.8187L21.1222 12.1078L21.3601 11.42L21.6054 10.839L21.8297 10.3647L21.7921 10.4607C21.7954 10.4539 21.7949 10.4552 21.793 10.4594L21.7921 10.4607L21.7832 10.4804C21.5704 10.9539 21.5273 11.3664 21.636 11.7075C21.7486 12.0598 22.0224 12.3353 22.4374 12.5208C22.8592 12.7094 23.4258 12.8046 24.1138 12.7926C24.8102 12.7801 25.6277 12.6575 26.5369 12.4119C27.453 12.1643 28.3687 11.8172 29.2348 11.403C30.1009 10.989 30.9112 10.5103 31.6194 10.0012C32.3232 9.4962 32.922 8.96357 33.3732 8.43592C33.8188 7.91534 34.1195 7.40244 34.2367 6.92818C34.2976 6.68264 34.3062 6.45974 34.2678 6.26052C34.2303 6.06296 34.1462 5.88846 34.0213 5.73765C33.8977 5.5885 33.7339 5.46219 33.5344 5.3602C33.3999 5.29164 33.2499 5.23431 33.0848 5.18715L32.8396 5.12109C32.9458 5.13647 33.005 5.14768 33.0848 5.16825C33.0848 5.16825 33.1674 5.1886 33.2663 5.21436C33.3361 5.23244 33.414 5.25321 33.4767 5.27149C33.696 5.33443 34.032 5.45181 34.032 5.45181Z" fill="white"/>
<path d="M38.5068 8.54602L39.0048 9.17151L39.4572 9.84312L39.6594 10.1859C39.7196 10.2925 39.7705 10.4044 39.8124 10.5214C39.8544 10.6385 39.8872 10.7609 39.9099 10.8885C39.9334 11.0162 39.9461 11.1498 39.9488 11.2879C39.9518 11.4267 39.9433 11.5704 39.9245 11.7192C39.8265 12.488 39.4457 13.3121 38.8334 14.1439C38.2084 14.9923 37.3465 15.8415 36.3107 16.6385C35.2629 17.4446 34.047 18.1891 32.7338 18.8175C31.4205 19.4461 30.0238 19.9513 28.6228 20.2803C27.6242 20.5146 26.6974 20.6426 25.8617 20.6729C25.0352 20.7031 24.3012 20.6384 23.6724 20.4895C23.0533 20.3427 22.5386 20.1156 22.1402 19.8177C21.7486 19.5252 21.4694 19.1655 21.3124 18.7483L21.1543 18.293L20.938 17.5143L20.7867 16.7297L20.7554 16.5085L20.7109 16.0665C20.7687 16.4879 20.9445 16.8562 21.236 17.1635C21.563 17.5075 22.0315 17.7732 22.6271 17.9477C23.2329 18.1257 23.9681 18.2086 24.8147 18.1839C25.6726 18.1581 26.6405 18.0216 27.696 17.762C29.017 17.4369 30.335 16.953 31.5778 16.3591C32.8202 15.7652 33.9744 15.0683 34.9726 14.3179C35.9606 13.5761 36.7869 12.7888 37.3927 12.0059C37.9869 11.2379 38.3649 10.4798 38.4765 9.77602C38.5077 9.57826 38.5171 9.39046 38.5055 9.21285C38.4998 9.11376 38.487 9.01758 38.4682 8.92451C38.4534 8.85243 38.435 8.78221 38.4132 8.71366C38.3631 8.55828 38.2952 8.41244 38.2088 8.27721C38.1558 8.19391 38.0956 8.11684 38.0301 8.04102L38.4439 8.47373L38.5068 8.54602Z" fill="white"/>
<path d="M40.8705 14.3864C40.9312 15.0145 40.9503 15.3813 40.8493 16.0047C40.694 16.968 40.4427 17.5353 39.9029 18.3195C39.3521 19.1185 38.5886 19.9091 37.667 20.6433C36.7358 21.3844 35.6515 22.0618 34.4765 22.6246C33.3005 23.1878 32.0456 23.6307 30.7797 23.9059C30.1237 24.0484 29.4989 24.1381 28.9137 24.1793C28.3328 24.2196 27.7908 24.2121 27.2935 24.1593C26.8016 24.1076 26.3535 24.0123 25.9563 23.8775C25.5621 23.7443 25.2183 23.5725 24.9277 23.366L24.3173 22.8914L23.8081 22.432C23.8081 22.432 23.4614 22.0936 23.2594 21.8583C23.1151 21.6902 22.9062 21.4125 22.9062 21.4125C23.1422 21.6814 23.4308 21.9137 23.7937 22.1054C24.219 22.3291 24.7264 22.496 25.3091 22.5991C25.8998 22.7035 26.5657 22.7416 27.2973 22.7065C28.0357 22.671 28.8399 22.5602 29.6954 22.3677C31.0696 22.0589 32.4357 21.572 33.7181 20.9584C35.0002 20.3451 36.1846 19.6123 37.2023 18.8135C38.2088 18.0244 39.0428 17.1787 39.6445 16.3288C40.2344 15.4962 40.5963 14.6663 40.6804 13.8873C40.6894 13.8031 40.6948 13.7205 40.6974 13.6395C40.7 13.565 40.6902 13.4845 40.6817 13.4147L40.6796 13.397C40.6706 13.3148 40.7823 13.7515 40.7823 13.7515C40.7823 13.7515 40.8468 14.1374 40.8705 14.3864Z" fill="white"/>
<path fill-rule="evenodd" clip-rule="evenodd" d="M30.3284 37.9871H29.536V37.3557H29.5188C29.4305 37.5891 29.0872 38.082 28.3568 38.082C27.3362 38.082 26.9219 37.1742 26.9219 35.998C26.9219 34.6312 27.4501 33.7751 28.4007 33.7751C29.096 33.7751 29.4217 34.1988 29.5188 34.441H29.536V32.0195H30.3284V37.9871ZM28.6209 34.3804C28.0045 34.3804 27.8024 35.0641 27.8024 35.9288C27.8024 36.5515 27.8902 37.4768 28.6294 37.4768C29.2724 37.4768 29.536 36.6033 29.536 35.9201C29.536 35.2021 29.3252 34.3804 28.6209 34.3804Z" fill="white"/>
<path d="M20.3906 37.9873H21.1826V36.2403C21.1826 34.9776 21.7808 34.6227 22.4939 34.6227V33.7754C21.667 33.7754 21.3151 34.3724 21.2003 34.7007H21.183V33.8707H20.3906V37.9873Z" fill="white"/>
<path fill-rule="evenodd" clip-rule="evenodd" d="M26.139 37.3379L26.1638 37.3298V37.9437L26.1235 37.9529C25.801 38.0263 25.5558 38.0822 25.1161 38.0822C23.8487 38.0822 23.0391 37.3472 23.0391 35.73C23.0391 33.9657 24.2104 33.7754 24.7466 33.7754C25.7676 33.7754 26.2604 34.4585 26.2604 35.4274V35.6264H23.831C23.831 36.3958 24.2277 37.477 25.3714 37.477C25.7163 37.477 25.957 37.3978 26.139 37.3379ZM24.7027 34.3806C24.0513 34.3806 23.8665 34.9258 23.8665 35.1073H25.4685C25.4685 34.8479 25.3098 34.3806 24.7027 34.3806Z" fill="white"/>
<path fill-rule="evenodd" clip-rule="evenodd" d="M33.9267 37.9871H34.719V32.0195H33.9267V34.441H33.909C33.8123 34.1988 33.4871 33.7751 32.7913 33.7751C31.8407 33.7751 31.3125 34.6312 31.3125 35.998C31.3125 37.1742 31.7264 38.082 32.747 38.082C33.4773 38.082 33.8212 37.5891 33.9085 37.3557H33.9262L33.9267 37.9871ZM32.1926 35.9288C32.1926 35.0641 32.3951 34.3804 33.0111 34.3804C33.7153 34.3804 33.9267 35.2021 33.9267 35.9201C33.9267 36.6033 33.663 37.4768 33.0204 37.4768C32.2808 37.4768 32.1926 36.5515 32.1926 35.9288Z" fill="white"/>
<path fill-rule="evenodd" clip-rule="evenodd" d="M37.5839 38.0822C38.842 38.0822 39.4319 37.2262 39.4319 35.9291C39.4319 34.6145 38.842 33.7754 37.5839 33.7754C36.3159 33.7754 35.7266 34.6145 35.7266 35.9291C35.7266 37.2262 36.3164 38.0822 37.5839 38.0822ZM36.6067 35.9291C36.6067 35.2628 36.7127 34.3806 37.5844 34.3806C38.4374 34.3806 38.5518 35.2628 38.5518 35.9291C38.5518 36.586 38.4374 37.477 37.5844 37.477C36.7122 37.477 36.6067 36.586 36.6067 35.9291Z" fill="white"/>
<path d="M42.6554 37.4167C42.5411 37.4515 42.3735 37.4772 42.2335 37.4772C41.617 37.4772 41.564 37.0449 41.564 36.673V34.4762H42.7259V33.871H41.564V32.418L40.7719 32.9022V33.871H40.0234V34.4762H40.7719V37.0793C40.7719 37.6418 41.0184 38.0824 42.0306 38.0824C42.2415 38.0824 42.4529 38.0655 42.6554 38.0219V37.4167Z" fill="white"/>
</svg>
