<svg width="134" height="44" viewBox="0 0 134 44" fill="none" xmlns="http://www.w3.org/2000/svg">
<mask id="mask0_687_1860" style="mask-type:luminance" maskUnits="userSpaceOnUse" x="20" y="14" width="94" height="15">
<path d="M113.479 14H20.3906V29H113.479V14Z" fill="white"/>
</mask>
<g mask="url(#mask0_687_1860)">
<mask id="mask1_687_1860" style="mask-type:luminance" maskUnits="userSpaceOnUse" x="20" y="14" width="94" height="15">
<path d="M113.479 14H20.3906V29H113.479V14Z" fill="white"/>
</mask>
<g mask="url(#mask1_687_1860)">
<path d="M45.4649 22.8814C45.4649 24.6508 43.7923 26.1063 41.0334 26.1063C37.9813 26.1063 36.4122 24.0232 36.2656 21.7919H37.7658C37.8692 23.4828 39.197 24.8774 40.973 24.8774C42.6887 24.8774 43.8871 24.1104 43.8871 22.864C43.8871 21.7745 43.1975 21.147 41.6973 20.7809L40.1281 20.4061C37.6968 19.8309 36.5501 18.785 36.5501 17.1551C36.5501 15.229 38.421 14 40.6109 14C43.4906 14 44.9476 15.6386 45.1459 17.6606H43.6458C43.5078 16.2661 42.4646 15.2202 40.6799 15.2202C39.1625 15.2202 38.1193 15.8826 38.1193 17.0767C38.1193 17.9657 38.6624 18.4538 40.5764 18.9157L42.1456 19.2905C44.301 19.8134 45.4649 20.8332 45.4649 22.8814Z" fill="white"/>
<path d="M45.6406 18.5328V17.4085H47.1753V15.4648H48.572V17.4085H50.7102V18.5328H48.572V23.8669C48.572 24.5293 48.8048 24.8082 49.5204 24.8082H50.6498V25.9326H49.1324C47.7185 25.9326 47.1753 25.2528 47.1753 24.0238V18.5328H45.6406Z" fill="white"/>
<path d="M59.1712 18.3655C57.8866 18.3655 57.2486 19.0976 57.1968 20.0999H55.8001C55.9036 18.5311 57.033 17.2324 59.1712 17.2324C61.0421 17.2324 62.5768 18.1737 62.5768 20.7449V25.9221H61.2318V24.2487H61.1973C60.7576 25.4253 59.7661 26.0878 58.447 26.0878C56.8261 26.0878 55.5156 25.1029 55.5156 23.4468C55.5156 21.695 57.033 21.1284 58.8177 20.9454L61.1801 20.6926V20.4224C61.1801 19.1499 60.4903 18.3655 59.1712 18.3655ZM61.1801 22.2266V21.7647L58.9384 22.0174C57.6711 22.1569 57.033 22.6101 57.033 23.5166C57.033 24.3707 57.7918 24.9634 58.7832 24.9634C60.2662 24.9721 61.1801 24.0744 61.1801 22.2266Z" fill="white"/>
<path d="M63.1094 18.5328V17.4085H64.6443V15.4648H66.0408V17.4085H68.1788V18.5328H66.0408V23.8669C66.0408 24.5293 66.2733 24.8082 66.9893 24.8082H68.1183V25.9326H66.6013C65.1873 25.9326 64.6443 25.2528 64.6443 24.0238V18.5328H63.1094Z" fill="white"/>
<path d="M72.2739 26.0975C69.7649 26.0975 68.3594 24.0318 68.3594 21.6698C68.3594 19.3078 69.6869 17.2422 72.2049 17.2422C74.7139 17.2422 76.2309 19.2381 75.9979 22.0969H69.7734C69.8424 23.8662 70.8514 24.9732 72.4029 24.9732C73.8684 24.9732 74.3084 23.936 74.4899 23.2387H75.8859C75.5929 24.7553 74.5844 26.0975 72.2739 26.0975ZM69.7734 20.9726H74.6099C74.4899 19.4386 73.6794 18.3665 72.1959 18.3665C70.7134 18.3665 69.9114 19.4386 69.7734 20.9726Z" fill="white"/>
<path d="M83.2953 23.778H83.2608C82.7863 25.007 81.7778 25.7565 80.4418 25.7565C78.0448 25.7565 76.8203 23.8478 76.8203 21.4945C76.8203 19.1412 78.0533 17.2324 80.4418 17.2324C81.7693 17.2324 82.7863 17.982 83.2608 19.2109H83.2953V17.4067H84.6918V25.6345C84.6918 27.5607 83.4243 28.9901 80.9848 28.9901C78.7603 28.9901 77.5618 27.9006 77.3293 26.1575H78.7258C78.9158 27.369 79.8723 27.8658 80.9848 27.8658C82.3038 27.8658 83.2953 27.1511 83.2953 25.6345V23.778ZM80.8728 24.6322C82.4933 24.6322 83.3638 23.3858 83.3638 21.4945C83.3638 19.6031 82.4848 18.3568 80.8728 18.3568C79.2518 18.3568 78.3463 19.6031 78.3463 21.4945C78.3463 23.3858 79.2518 24.6322 80.8728 24.6322Z" fill="white"/>
<path d="M85.2891 17.4082H86.7376L89.4706 24.9736L92.1521 17.4082H93.6006L89.5571 28.826H88.1086L89.4361 25.0782H88.0566L85.2891 17.4082Z" fill="white"/>
<path d="M98.5396 18.5306H94.0736V17.4062H100.264V18.5306L95.6771 24.806H100.411V25.9303H93.9531V24.806L98.5396 18.5306Z" fill="white"/>
<path d="M104.461 26.0975C101.952 26.0975 100.547 24.0318 100.547 21.6698C100.547 19.3078 101.874 17.2422 104.391 17.2422C106.9 17.2422 108.418 19.2381 108.185 22.0969H101.96C102.03 23.8662 103.038 24.9732 104.59 24.9732C106.056 24.9732 106.495 23.936 106.676 23.2387H108.073C107.788 24.7553 106.771 26.0975 104.461 26.0975ZM101.969 20.9726H106.805C106.685 19.4386 105.874 18.3665 104.391 18.3665C102.908 18.3665 102.107 19.4386 101.969 20.9726Z" fill="white"/>
<path d="M55.8483 17.4082H51.5547V25.9323H52.9169V18.5413H55.8483V17.4082Z" fill="white"/>
<path d="M113.473 17.4082H109.18V25.9323H110.542V18.5413H113.473V17.4082Z" fill="white"/>
<path d="M29.909 20.0488C29.909 22.0186 28.3226 23.6223 26.3741 23.6223C24.4256 23.6223 22.8392 22.0186 22.8392 20.0488C22.8392 18.079 24.4256 16.4753 26.3741 16.4753V14C23.072 14 20.3906 16.7194 20.3906 20.0488C20.3906 23.387 23.072 26.0977 26.3741 26.0977C29.6762 26.0977 32.3575 23.387 32.3575 20.0488H29.909ZM26.3741 20.0576H29.909C29.909 18.0878 28.3226 16.484 26.3741 16.484V20.0576Z" fill="white"/>
</g>
</g>
</svg>
