<svg width="94" height="44" viewBox="0 0 94 44" fill="none" xmlns="http://www.w3.org/2000/svg">
<mask id="mask0_687_1923" style="mask-type:luminance" maskUnits="userSpaceOnUse" x="20" y="8" width="54" height="27">
<path d="M73.3318 8H20.3906V35H73.3318V8Z" fill="white"/>
</mask>
<g mask="url(#mask0_687_1923)">
<path d="M21.7043 8.36914V15.7737H22.8906V12.6237H26.4497V11.4782H22.8906V9.5146H26.4906V8.36914H21.7043ZM27.8406 8.36914V15.7737H33.6906V8.36914H32.5043V14.6282H29.027V8.36914H27.8406ZM36.8406 9.5146V15.7737H38.027V9.5146H40.2361V8.36914H34.6724V9.5146H36.8406ZM41.2179 8.36914V15.7737H47.0679V8.36914H45.8815V14.6282H42.4043V8.36914H41.2179ZM54.5952 15.7737L52.427 12.951C52.9588 12.8282 53.3679 12.6237 53.6543 12.3373C53.9406 12.051 54.2679 11.3964 54.2679 10.7419C54.2679 10.0873 54.0634 9.47368 53.6543 9.0646C53.2043 8.6146 52.5906 8.36914 51.7724 8.36914H48.7452V15.7737H49.9315V13.0328H51.0361L53.1634 15.7737H54.6361H54.5952ZM49.9315 11.9282V9.5146H51.6906C52.1815 9.5146 52.5497 9.63732 52.7952 9.88277C52.9997 10.0873 53.0815 10.3737 53.0815 10.701C53.0815 11.0282 52.9588 11.3555 52.7543 11.5601C52.5088 11.8055 52.1406 11.9282 51.6906 11.9282H49.9315ZM55.6179 8.36914V15.7737H60.4452V14.6282H56.8043V12.5828H60.1997V11.4373H56.8043V9.5146H60.4452V8.36914H55.6179ZM21.7043 17.7782V25.1828H26.2452V24.0373H22.8906V17.7782H21.7043ZM30.0906 25.3055C31.2361 25.3055 32.177 24.8964 32.8315 24.2419C33.527 23.5464 33.9361 22.5646 33.9361 21.501C33.9361 20.4373 33.5679 19.4555 32.8315 18.7601C32.1361 18.0646 31.2361 17.6964 30.0906 17.6964C28.9452 17.6964 28.0452 18.1055 27.3497 18.7601C26.6543 19.4555 26.2452 20.4373 26.2452 21.501C26.2452 22.5646 26.6133 23.5464 27.3497 24.2419C28.0452 24.8964 28.9452 25.3055 30.0906 25.3055ZM30.0906 24.1601C29.3134 24.1601 28.6997 23.9146 28.2497 23.4237C27.7588 22.9328 27.4724 22.2373 27.4724 21.4601C27.4724 20.6828 27.7179 19.9873 28.2497 19.4964C28.6997 19.0464 29.3134 18.7601 30.0906 18.7601C30.8679 18.7601 31.4815 19.0055 31.9315 19.4964C32.4224 19.9873 32.7088 20.6828 32.7088 21.4601C32.7088 22.2373 32.4634 22.9328 31.9315 23.4237C31.4815 23.8737 30.8679 24.1601 30.0906 24.1601ZM41.2588 17.7782H40.1134V23.3419L36.4315 17.7782H35.1224V25.1828H36.2679V19.6191L39.9497 25.1828H41.2588V17.7782ZM42.8952 17.7782V25.1828H45.5134C46.6588 25.1828 47.5997 24.8146 48.2543 24.1191C48.9088 23.4646 49.277 22.5237 49.277 21.4601C49.277 20.3964 48.9088 19.4555 48.2543 18.801C47.5588 18.1464 46.6588 17.7373 45.5134 17.7373H42.8952V17.7782ZM44.0815 24.0373V18.9237H45.5134C46.3315 18.9237 46.9452 19.1691 47.3543 19.6191C47.8043 20.1101 48.0497 20.7237 48.0497 21.501C48.0497 22.2782 47.8043 22.8919 47.3543 23.3828C46.9043 23.8328 46.2906 24.0782 45.5134 24.0782H44.0815V24.0373ZM53.777 25.3055C54.9224 25.3055 55.8634 24.8964 56.5179 24.2419C57.2134 23.5464 57.6224 22.5646 57.6224 21.501C57.6224 20.4373 57.2543 19.4555 56.5179 18.7601C55.8224 18.0646 54.9224 17.6964 53.777 17.6964C52.6315 17.6964 51.7315 18.1055 51.0361 18.7601C50.3406 19.4555 49.9315 20.4373 49.9315 21.501C49.9315 22.5646 50.2997 23.5464 51.0361 24.2419C51.7315 24.8964 52.6315 25.3055 53.777 25.3055ZM53.777 24.1601C52.9997 24.1601 52.3861 23.9146 51.9361 23.4237C51.4452 22.9328 51.1588 22.2373 51.1588 21.4601C51.1588 20.6828 51.4043 19.9873 51.9361 19.4964C52.3861 19.0464 52.9997 18.7601 53.777 18.7601C54.5543 18.7601 55.1679 19.0055 55.6179 19.4964C56.1088 19.9873 56.3952 20.6828 56.3952 21.4601C56.3952 22.2373 56.1497 22.9328 55.6179 23.4237C55.1679 23.8737 54.5543 24.1601 53.777 24.1601ZM64.9043 17.7782H63.7588V23.3419L60.077 17.7782H58.7679V25.1828H59.9134V19.6191L63.5952 25.1828H64.9043V17.7782ZM25.0179 27.1873H23.5043L20.6406 34.5919H27.8406L25.0179 27.1873ZM24.2406 28.3737L26.1633 33.4873H22.3179L24.2406 28.3737ZM31.7679 34.7146C32.9134 34.7146 33.8952 34.3055 34.5906 33.6101C34.7134 33.4873 34.8361 33.3237 34.9588 33.1601L34.0179 32.5055L33.8134 32.751C33.2815 33.2419 32.627 33.5691 31.7679 33.5691C30.9088 33.5691 30.3361 33.2828 29.8861 32.8328C29.3952 32.3419 29.1088 31.6464 29.1088 30.8691C29.1088 30.0919 29.3543 29.3964 29.8861 28.9055C30.3361 28.4555 30.9497 28.1691 31.7679 28.1691C32.5861 28.1691 33.1997 28.4146 33.6497 28.9055C33.7724 29.0282 33.8543 29.151 33.977 29.3146L34.9179 28.6191C34.7952 28.4555 34.6724 28.3328 34.5088 28.1691C33.8134 27.4737 32.8724 27.0646 31.727 27.0646C30.5815 27.0646 29.6406 27.4737 28.9861 28.1282C28.3315 28.7828 27.8815 29.8055 27.8815 30.8691C27.8815 31.9328 28.2497 32.9146 28.9861 33.6101C29.7224 34.3055 30.5815 34.6737 31.727 34.6737L31.7679 34.7146ZM39.377 27.1873H37.8634L35.0406 34.5919H42.2406L39.4179 27.1873H39.377ZM38.5997 28.3737L40.5224 33.4873H36.677L38.5997 28.3737ZM42.8952 27.1873V34.5919H45.5134C46.6588 34.5919 47.5997 34.2237 48.2543 33.5282C48.9088 32.8737 49.277 31.9328 49.277 30.8691C49.277 29.8055 48.9088 28.8646 48.2543 28.2101C47.5588 27.5555 46.6588 27.1464 45.5134 27.1464H42.8952V27.1873ZM44.1224 33.4464V28.3328H45.5543C46.3724 28.3328 46.9861 28.5782 47.3952 29.0282C47.8452 29.5191 48.0906 30.1328 48.0906 30.9101C48.0906 31.6873 47.8452 32.301 47.3952 32.7919C46.9452 33.2419 46.3315 33.4873 45.5543 33.4873H44.1224V33.4464ZM50.4634 27.1873V34.5919H55.2906V33.4464H51.6497V31.401H55.0452V30.2555H51.6497V28.3328H55.2906V27.1873H50.4634ZM64.127 27.1873H62.7361L60.4452 31.3191L58.1952 27.1873H56.8043V34.5919H57.9497V29.0282L59.8724 32.5873H61.0588L62.9815 29.0282V31.5237C62.9406 31.5237 62.9406 34.6328 62.9406 34.6328H64.0861V27.2282L64.127 27.1873ZM70.0179 27.1873L68.0543 30.8691L66.0906 27.1873H64.7406L67.4406 32.2191V34.5919H68.627V32.2191L71.327 27.1873H69.977H70.0179Z" fill="white"/>
</g>
</svg>
