<svg width="40" height="40" viewBox="0 0 40 40" fill="none" xmlns="http://www.w3.org/2000/svg">
<g clip-path="url(#clip0_649_2414)">
<path d="M30.5273 9.47448L21.0537 8.42188L9.47467 9.47448L8.42188 20.0009L9.47447 30.5273L20.0009 31.8431L30.5273 30.5273L31.5799 19.7379L30.5273 9.47448Z" fill="white"/>
<path d="M13.7916 25.8063C13.0048 25.2747 12.46 24.4985 12.1626 23.4721L13.989 22.7195C14.1548 23.3511 14.4442 23.8404 14.8574 24.1878C15.268 24.5352 15.768 24.7063 16.3522 24.7063C16.9496 24.7063 17.4628 24.5247 17.8916 24.1615C18.3204 23.7983 18.5364 23.335 18.5364 22.7746C18.5364 22.201 18.31 21.7325 17.8574 21.3695C17.4048 21.0065 16.8364 20.8246 16.1574 20.8246H15.1022V19.0169H16.0494C16.6336 19.0169 17.1258 18.859 17.5258 18.5432C17.9258 18.2274 18.1258 17.7958 18.1258 17.2458C18.1258 16.7564 17.9468 16.3669 17.589 16.0749C17.2312 15.7829 16.7784 15.6354 16.2284 15.6354C15.6916 15.6354 15.2652 15.7777 14.9494 16.0645C14.6336 16.3513 14.4046 16.7039 14.26 17.1197L12.4522 16.3671C12.6916 15.6881 13.1312 15.0881 13.7758 14.5697C14.4206 14.0513 15.2442 13.7906 16.2442 13.7906C16.9836 13.7906 17.6494 13.9329 18.239 14.2197C18.8284 14.5065 19.2916 14.9038 19.6258 15.409C19.96 15.9169 20.1258 16.4855 20.1258 17.1169C20.1258 17.7617 19.9706 18.3063 19.66 18.7537C19.3494 19.201 18.9678 19.543 18.5152 19.7826V19.8904C19.1126 20.1404 19.5994 20.522 19.9836 21.0352C20.3652 21.5484 20.5572 22.1617 20.5572 22.8775C20.5572 23.5933 20.3756 24.2326 20.0124 24.7933C19.6492 25.3538 19.1466 25.7959 18.5098 26.1169C17.8704 26.4378 17.152 26.6011 16.3546 26.6011C15.431 26.6037 14.5784 26.3379 13.7916 25.8063Z" fill="#1A73E8"/>
<path d="M25.0006 16.7408L23.0058 18.1908L22.0032 16.6698L25.6006 14.075H26.9796V26.3144H25.0006V16.7408Z" fill="#1A73E8"/>
<path d="M30.5271 40.0007L40.0007 30.5271L35.2639 28.4219L30.5271 30.5271L28.4219 35.2639L30.5271 40.0007Z" fill="#EA4335"/>
<path d="M7.36865 35.2618L9.47385 39.9986H30.5265V30.525H9.47385L7.36865 35.2618Z" fill="#34A853"/>
<path d="M3.1578 0C1.4132 0 0 1.4132 0 3.1578V30.5262L4.7368 32.6314L9.4736 30.5262V9.4736H30.5262L32.6314 4.7368L30.5264 0H3.1578Z" fill="#4285F4"/>
<path d="M0 30.525V36.8408C0 38.5856 1.4132 39.9986 3.1578 39.9986H9.4736V30.525H0Z" fill="#188038"/>
<path d="M30.5249 9.47397V30.5266H39.9985V9.47397L35.2617 7.36877L30.5249 9.47397Z" fill="#FBBC04"/>
<path d="M39.9985 9.4736V3.1578C39.9985 1.413 38.5853 0 36.8407 0H30.5249V9.4736H39.9985Z" fill="#1967D2"/>
</g>
<defs>
<clipPath id="clip0_649_2414">
<rect width="40" height="40" fill="white"/>
</clipPath>
</defs>
</svg>
